<svg xmlns="http://www.w3.org/2000/svg" xmlns:xlink="http://www.w3.org/1999/xlink" width="500" zoomAndPan="magnify" viewBox="0 0 375 374.999991" height="500" preserveAspectRatio="xMidYMid meet" version="1.0"><defs><g/></defs><g fill="#c56683" fill-opacity="1"><g transform="translate(6.488391, 256.063239)"><g><path d="M 201.203125 0 L 136.953125 0 L 61.53125 -86.828125 L 61.53125 0 L 14.890625 0 L 14.890625 -204.671875 L 61.53125 -204.671875 L 61.53125 -121.0625 L 131.734375 -204.671875 L 188.296875 -204.671875 L 105.9375 -107.671875 Z M 201.203125 0 "/></g></g></g><g fill="#c56683" fill-opacity="1"><g transform="translate(201.729694, 256.063239)"><g><path d="M 90.3125 -208.40625 C 101.382812 -208.40625 112.210938 -206.789062 122.796875 -203.5625 C 133.390625 -200.332031 141.25 -197.148438 146.375 -194.015625 L 153.8125 -189.046875 L 134.96875 -151.828125 C 133.476562 -152.828125 131.410156 -154.109375 128.765625 -155.671875 C 126.117188 -157.242188 121.15625 -159.351562 113.875 -162 C 106.59375 -164.644531 99.8125 -165.96875 93.53125 -165.96875 C 85.757812 -165.96875 79.765625 -164.3125 75.546875 -161 C 71.328125 -157.695312 69.21875 -153.234375 69.21875 -147.609375 C 69.21875 -144.796875 70.207031 -142.191406 72.1875 -139.796875 C 74.175781 -137.398438 77.566406 -134.835938 82.359375 -132.109375 C 87.160156 -129.378906 91.378906 -127.1875 95.015625 -125.53125 C 98.660156 -123.875 104.285156 -121.394531 111.890625 -118.09375 C 125.117188 -112.46875 136.40625 -104.816406 145.75 -95.140625 C 155.09375 -85.460938 159.765625 -74.503906 159.765625 -62.265625 C 159.765625 -50.523438 157.65625 -40.269531 153.4375 -31.5 C 149.226562 -22.738281 143.441406 -15.875 136.078125 -10.90625 C 128.722656 -5.945312 120.578125 -2.269531 111.640625 0.125 C 102.710938 2.519531 93.035156 3.71875 82.609375 3.71875 C 73.679688 3.71875 64.914062 2.804688 56.3125 0.984375 C 47.71875 -0.828125 40.523438 -3.097656 34.734375 -5.828125 C 28.941406 -8.554688 23.726562 -11.242188 19.09375 -13.890625 C 14.46875 -16.535156 11.082031 -18.769531 8.9375 -20.59375 L 5.703125 -23.328125 L 29.03125 -62.515625 C 31.007812 -60.859375 33.734375 -58.75 37.203125 -56.1875 C 40.679688 -53.625 46.84375 -50.191406 55.6875 -45.890625 C 64.539062 -41.597656 72.359375 -39.453125 79.140625 -39.453125 C 98.828125 -39.453125 108.671875 -46.148438 108.671875 -59.546875 C 108.671875 -62.359375 107.96875 -64.960938 106.5625 -67.359375 C 105.15625 -69.753906 102.671875 -72.148438 99.109375 -74.546875 C 95.554688 -76.953125 92.414062 -78.851562 89.6875 -80.25 C 86.957031 -81.65625 82.488281 -83.804688 76.28125 -86.703125 C 70.082031 -89.597656 65.492188 -91.789062 62.515625 -93.28125 C 50.109375 -99.40625 40.515625 -107.054688 33.734375 -116.234375 C 26.953125 -125.410156 23.5625 -135.289062 23.5625 -145.875 C 23.5625 -164.238281 30.34375 -179.25 43.90625 -190.90625 C 57.46875 -202.570312 72.9375 -208.40625 90.3125 -208.40625 Z M 90.3125 -208.40625 "/></g></g></g></svg>